<svg xmlns="http://www.w3.org/2000/svg" fill="none" viewBox="0 0 40 40" height="40" width="40">
<path fill="black" d="M20 0C8.95458 0 0 8.95458 0 20C0 31.0454 8.95458 40 20 40C31.0454 40 40 31.0454 40 20C40 8.95458 31.0454 0 20 0ZM20 36.3116C11.0058 36.3116 3.68841 28.9942 3.68841 20C3.68841 11.0058 11.0046 3.68725 20 3.68725C28.9954 3.68725 36.3116 11.0046 36.3116 19.9988C36.3116 28.9931 28.9942 36.3104 20 36.3104V36.3116Z"></path>
<path fill="black" d="M21.8774 18.123H18.1226V21.8779H21.8774V18.123Z"></path>
<path fill="black" d="M21.8774 12.1953H18.1226V15.9502H21.8774V12.1953Z"></path>
<path fill="black" d="M21.8774 6.26758H18.1226V10.0225H21.8774V6.26758Z"></path>
</svg>
